<?xml version="1.0" standalone="no"?>
<!DOCTYPE svg PUBLIC "-//W3C//DTD SVG 20010904//EN"
 "http://www.w3.org/TR/2001/REC-SVG-20010904/DTD/svg10.dtd">
<svg version="1.0" xmlns="http://www.w3.org/2000/svg"
 width="135.000000pt" height="135.000000pt" viewBox="0 0 135.000000 135.000000"
 preserveAspectRatio="xMidYMid meet">
<metadata>
Created by potrace 1.14, written by Peter Selinger 2001-2017
</metadata>
<g transform="translate(0.000000,135.000000) scale(0.100000,-0.100000)"
fill="#000000" stroke="none">
<path d="M938 1127 c-16 -13 -28 -26 -28 -30 0 -5 16 -29 36 -55 151 -198 176
-500 61 -728 -19 -38 -50 -89 -69 -114 l-35 -45 35 -28 c20 -15 38 -24 42 -20
218 262 253 618 88 913 -33 60 -86 130 -96 130 -4 -1 -19 -11 -34 -23z"/>
<path d="M783 995 c-7 -7 -22 -20 -34 -28 -21 -15 -21 -15 -1 -35 11 -11 32
-40 46 -64 97 -165 83 -382 -34 -530 l-29 -36 36 -28 36 -27 28 34 c38 47 89
152 103 214 38 160 0 343 -97 471 -36 48 -37 49 -54 29z"/>
<path d="M597 845 l-28 -25 26 -34 c53 -69 70 -190 36 -254 -11 -20 -22 -13
-202 133 -105 85 -194 155 -198 155 -5 0 -19 -24 -31 -52 -42 -97 -33 -240 21
-326 17 -27 19 -27 56 3 l30 26 -19 39 c-11 22 -22 67 -25 100 -5 50 -3 60 10
60 8 0 17 -3 19 -8 2 -6 249 -208 324 -265 23 -18 23 -18 54 25 52 71 63 105
64 203 1 78 -3 98 -26 146 -25 54 -59 99 -75 99 -5 0 -21 -12 -36 -25z"/>
</g>
</svg>
